<svg width="170" height="32" viewBox="0 0 170 32" fill="none" xmlns="http://www.w3.org/2000/svg">
<path d="M13.3998 6.25865L14.51 5.14849C14.708 4.9505 15.0191 4.9505 15.2171 5.14849L20.1032 10.0346L18.6395 11.4983L13.3998 6.25865Z" fill="#FAFAFA"/>
<path d="M9.94881 20.3967L11.4125 18.9329L16.6522 24.1726L15.542 25.2828C15.344 25.4808 15.0329 25.4808 14.8349 25.2828L9.94881 20.3967Z" fill="#FAFAFA"/>
<path d="M10.4637 9.18754L9 10.6513L19.5783 21.2296L21.042 19.7659L10.4637 9.18754Z" fill="#FAFAFA"/>
<path d="M35.1411 22.8093C34.1311 22.4993 33.3411 22.0993 32.7511 21.5893L33.6511 19.5693C34.2211 20.0193 34.9311 20.3893 35.7611 20.6793C36.5911 20.9693 37.4311 21.1093 38.2711 21.1093C39.3111 21.1093 40.0911 20.9393 40.6011 20.6093C41.1111 20.2793 41.3711 19.8393 41.3711 19.2893C41.3711 18.8893 41.2311 18.5593 40.9411 18.2993C40.6511 18.0393 40.2911 17.8393 39.8511 17.6893C39.4111 17.5393 38.8111 17.3793 38.0511 17.1893C36.9811 16.9393 36.1211 16.6793 35.4611 16.4293C34.8011 16.1793 34.2311 15.7793 33.7611 15.2393C33.2911 14.6993 33.0511 13.9693 33.0511 13.0493C33.0511 12.2793 33.2611 11.5693 33.6811 10.9393C34.1011 10.3093 34.7311 9.79932 35.5811 9.42932C36.4311 9.05932 37.4611 8.86932 38.6911 8.86932C39.5411 8.86932 40.3811 8.97932 41.2111 9.18932C42.0411 9.39932 42.7511 9.70932 43.3511 10.1093L42.5311 12.1293C41.9211 11.7693 41.2811 11.4993 40.6111 11.3093C39.9411 11.1193 39.3011 11.0293 38.6711 11.0293C37.6411 11.0293 36.8811 11.1993 36.3811 11.5493C35.8811 11.8993 35.6311 12.3593 35.6311 12.9293C35.6311 13.3293 35.7711 13.6593 36.0611 13.9093C36.3511 14.1593 36.7111 14.3593 37.1511 14.5093C37.5911 14.6593 38.1911 14.8193 38.9511 15.0093C39.9911 15.2493 40.8411 15.4993 41.5111 15.7593C42.1811 16.0193 42.7511 16.4193 43.2211 16.9493C43.6911 17.4793 43.9311 18.1993 43.9311 19.1093C43.9311 19.8793 43.7211 20.5793 43.3011 21.2093C42.8811 21.8393 42.2411 22.3393 41.3911 22.7093C40.5411 23.0793 39.5011 23.2693 38.2711 23.2693C37.1911 23.2693 36.1511 23.1193 35.1411 22.8093Z" fill="#FAFAFA"/>
<path d="M57.6111 12.3893V23.0693H55.2311V21.7093C54.8311 22.1893 54.3311 22.5593 53.7311 22.8193C53.1311 23.0793 52.4811 23.2093 51.7911 23.2093C50.3611 23.2093 49.2411 22.8093 48.4211 22.0193C47.6011 21.2293 47.1911 20.0493 47.1911 18.4893V12.3893H49.6911V18.1493C49.6911 19.1093 49.9111 19.8293 50.3411 20.2993C50.7711 20.7693 51.3911 21.0093 52.1911 21.0093C53.0811 21.0093 53.7911 20.7293 54.3211 20.1793C54.8511 19.6293 55.1111 18.8293 55.1111 17.7893V12.3893H57.6111Z" fill="#FAFAFA"/>
<path d="M70.6011 12.9493C71.4211 13.3993 72.0611 14.0393 72.5311 14.8693C73.0011 15.6993 73.2311 16.6493 73.2311 17.7293C73.2311 18.8093 73.0011 19.7693 72.5311 20.5993C72.0611 21.4293 71.4211 22.0793 70.6011 22.5293C69.7811 22.9793 68.8511 23.2093 67.8111 23.2093C66.3711 23.2093 65.2311 22.7293 64.3911 21.7693V26.9493H61.8911V12.3893H64.2711V13.7893C64.6811 13.2793 65.1911 12.8993 65.8011 12.6493C66.4111 12.3993 67.0811 12.2693 67.8111 12.2693C68.8511 12.2693 69.7811 12.4993 70.6011 12.9493ZM69.8011 20.1493C70.3911 19.5393 70.6911 18.7293 70.6911 17.7293C70.6911 16.7293 70.3911 15.9193 69.8011 15.3093C69.2111 14.6993 68.4511 14.3893 67.5311 14.3893C66.9311 14.3893 66.3911 14.5293 65.9111 14.7993C65.4311 15.0693 65.0511 15.4593 64.7711 15.9693C64.4911 16.4793 64.3511 17.0593 64.3511 17.7293C64.3511 18.3993 64.4911 18.9793 64.7711 19.4893C65.0511 19.9993 65.4311 20.3893 65.9111 20.6593C66.3911 20.9293 66.9311 21.0693 67.5311 21.0693C68.4511 21.0693 69.2111 20.7593 69.8011 20.1493Z" fill="#FAFAFA"/>
<path d="M84.5911 19.9293L85.9111 21.4693C85.4411 22.0393 84.8411 22.4793 84.1111 22.7693C83.3811 23.0593 82.5511 23.2093 81.6311 23.2093C80.4611 23.2093 79.4211 22.9793 78.5311 22.5093C77.6411 22.0393 76.9511 21.3893 76.4611 20.5593C75.9711 19.7293 75.7311 18.7793 75.7311 17.7293C75.7311 16.6793 75.9711 15.7493 76.4411 14.9193C76.9111 14.0893 77.5711 13.4393 78.4011 12.9693C79.2311 12.4993 80.1811 12.2693 81.2311 12.2693C82.2811 12.2693 83.1411 12.4893 83.9611 12.9193C84.7811 13.3493 85.4311 13.9693 85.9111 14.7793C86.3911 15.5893 86.6311 16.5293 86.6311 17.6093L78.4511 19.2093C78.7011 19.8193 79.1111 20.2893 79.6711 20.6093C80.2311 20.9293 80.9011 21.0893 81.6911 21.0893C82.8511 21.0893 83.8211 20.6993 84.5911 19.9293ZM79.0011 15.1693C78.4311 15.7693 78.1511 16.5793 78.1511 17.5893V17.6093L84.1911 16.4493C84.0211 15.7993 83.6711 15.2693 83.1411 14.8693C82.6111 14.4693 81.9811 14.2693 81.2311 14.2693C80.3111 14.2693 79.5711 14.5693 79.0011 15.1693Z" fill="#FAFAFA"/>
<path d="M96.2111 12.2693V14.6493C96.0011 14.6093 95.8011 14.5893 95.6311 14.5893C94.6611 14.5893 93.9011 14.8693 93.3511 15.4393C92.8011 16.0093 92.5311 16.8193 92.5311 17.8893V23.0693H90.0311V12.3893H92.4111V13.9493C93.1311 12.8293 94.4011 12.2693 96.2111 12.2693Z" fill="#FAFAFA"/>
<path d="M109.671 12.3893V23.0693H107.291V21.6893C106.881 22.1993 106.371 22.5793 105.761 22.8293C105.151 23.0793 104.481 23.2093 103.751 23.2093C102.711 23.2093 101.781 22.9793 100.961 22.5293C100.141 22.0793 99.5011 21.4393 99.0411 20.6093C98.5811 19.7793 98.3511 18.8193 98.3511 17.7293C98.3511 16.6393 98.5811 15.6793 99.0411 14.8593C99.5011 14.0393 100.141 13.3993 100.961 12.9493C101.781 12.4993 102.711 12.2693 103.751 12.2693C104.441 12.2693 105.081 12.3893 105.661 12.6293C106.241 12.8693 106.741 13.2193 107.171 13.6893V12.3893H109.671ZM106.311 20.1493C106.911 19.5393 107.211 18.7293 107.211 17.7293C107.211 16.7293 106.911 15.9193 106.311 15.3093C105.711 14.6993 104.951 14.3893 104.031 14.3893C103.111 14.3893 102.351 14.6993 101.761 15.3093C101.171 15.9193 100.871 16.7293 100.871 17.7293C100.871 18.7293 101.171 19.5393 101.761 20.1493C102.351 20.7593 103.111 21.0693 104.031 21.0693C104.951 21.0693 105.711 20.7593 106.311 20.1493Z" fill="#FAFAFA"/>
<path d="M121.401 22.2993C120.781 21.6893 120.471 20.8393 120.471 19.7293V8.22932H122.971V19.5493C122.971 20.6193 123.471 21.1493 124.471 21.1493C124.801 21.1493 125.101 21.0793 125.371 20.9493L125.491 22.9493C125.021 23.1193 124.521 23.2093 123.991 23.2093C122.881 23.2093 122.021 22.9093 121.401 22.2993Z" fill="#FAFAFA"/>
<path d="M128.311 10.1993C128.001 9.90932 127.851 9.55932 127.851 9.12932C127.851 8.69932 128.001 8.34932 128.311 8.05932C128.621 7.76932 129.001 7.62932 129.451 7.62932C129.901 7.62932 130.281 7.76932 130.591 8.03932C130.901 8.30932 131.051 8.65932 131.051 9.06932C131.051 9.50932 130.901 9.87932 130.601 10.1793C130.301 10.4793 129.921 10.6293 129.451 10.6293C128.981 10.6293 128.621 10.4893 128.311 10.1993ZM128.191 12.3893H130.691V23.0693H128.191V12.3893Z" fill="#FAFAFA"/>
<path d="M144.271 13.4493C145.081 14.2393 145.491 15.3993 145.491 16.9493V23.0693H142.991V17.2693C142.991 16.3393 142.771 15.6293 142.331 15.1593C141.891 14.6893 141.261 14.4493 140.451 14.4493C139.531 14.4493 138.801 14.7293 138.271 15.2793C137.741 15.8293 137.471 16.6293 137.471 17.6693V23.0693H134.971V12.3893H137.351V13.7693C137.761 13.2793 138.281 12.8993 138.911 12.6493C139.541 12.3993 140.241 12.2693 141.031 12.2693C142.381 12.2693 143.461 12.6593 144.271 13.4493Z" fill="#FAFAFA"/>
<path d="M154.031 18.4893L152.171 20.2493V23.0693H149.671V8.22932H152.171V17.1893L157.351 12.3893H160.351L155.891 16.8693L160.771 23.0693H157.731L154.031 18.4893Z" fill="#FAFAFA"/>
</svg>
