<svg width="135" height="24" viewBox="0 0 135 24" fill="none" xmlns="http://www.w3.org/2000/svg">
<path d="M10.176 23.32C8.78933 23.32 7.52 23.1493 6.368 22.808C5.23733 22.4667 4.224 21.9653 3.328 21.304C2.45333 20.6427 1.664 19.8427 0.96 18.904L3.968 15.48C5.01333 16.9307 6.048 17.9227 7.072 18.456C8.11733 18.968 9.248 19.224 10.464 19.224C11.1253 19.224 11.712 19.1387 12.224 18.968C12.7573 18.776 13.1733 18.5093 13.472 18.168C13.7707 17.8267 13.92 17.4213 13.92 16.952C13.92 16.6107 13.8453 16.3013 13.696 16.024C13.5467 15.7253 13.3333 15.4693 13.056 15.256C12.7787 15.0213 12.448 14.8187 12.064 14.648C11.68 14.456 11.2533 14.296 10.784 14.168C10.3147 14.0187 9.80267 13.9013 9.248 13.816C8.05333 13.5387 7.008 13.208 6.112 12.824C5.216 12.4187 4.46933 11.928 3.872 11.352C3.27467 10.7547 2.82667 10.0827 2.528 9.336C2.25067 8.58933 2.112 7.74667 2.112 6.808C2.112 5.848 2.32533 4.96267 2.752 4.152C3.17867 3.32 3.76533 2.60533 4.512 2.008C5.28 1.41067 6.15467 0.951999 7.136 0.631998C8.13867 0.311998 9.19467 0.151999 10.304 0.151999C11.6693 0.151999 12.864 0.311998 13.888 0.631998C14.912 0.930665 15.7973 1.368 16.544 1.944C17.312 2.52 17.952 3.224 18.464 4.056L15.424 7C14.976 6.40267 14.4853 5.90133 13.952 5.496C13.44 5.09067 12.8747 4.792 12.256 4.6C11.6587 4.38667 11.04 4.28 10.4 4.28C9.696 4.28 9.088 4.376 8.576 4.568C8.064 4.73867 7.65867 4.99467 7.36 5.336C7.08267 5.67733 6.944 6.09333 6.944 6.584C6.944 6.968 7.04 7.30933 7.232 7.608C7.424 7.90667 7.70133 8.17333 8.064 8.408C8.42667 8.62133 8.864 8.81333 9.376 8.984C9.888 9.15467 10.4533 9.304 11.072 9.432C12.2453 9.66667 13.3013 9.976 14.24 10.36C15.1787 10.744 15.9787 11.2133 16.64 11.768C17.3227 12.3013 17.8453 12.9413 18.208 13.688C18.5707 14.4133 18.752 15.2347 18.752 16.152C18.752 17.6667 18.3893 18.9573 17.664 20.024C16.9387 21.0907 15.936 21.912 14.656 22.488C13.376 23.0427 11.8827 23.32 10.176 23.32ZM22.5235 23V18.872H26.2675V4.728H22.5235V0.599998H34.8115V4.728H31.0675V18.872H34.8115V23H22.5235ZM40.0683 23V0.599998H44.4523L52.6123 13.88L49.7323 13.848L57.9883 0.599998H62.1803V23H57.4763V15.32C57.4763 13.4 57.5189 11.672 57.6043 10.136C57.7109 8.6 57.8816 7.07467 58.1163 5.56L58.6923 7.064L52.1323 17.24H50.0203L43.5883 7.128L44.1323 5.56C44.3669 6.98933 44.5269 8.46133 44.6123 9.976C44.7189 11.4693 44.7723 13.2507 44.7723 15.32V23H40.0683ZM82.1178 23V0.599998H86.9178V23H82.1178ZM68.0058 23V0.599998H72.8058V23H68.0058ZM69.9258 14.008L69.9578 9.656H84.5818V14.008H69.9258ZM101.972 23.192C100.158 23.192 98.5371 22.8187 97.1078 22.072C95.6998 21.304 94.5904 20.2587 93.7798 18.936C92.9691 17.592 92.5638 16.0773 92.5638 14.392V0.567999H97.3958V14.104C97.3958 15 97.5984 15.8107 98.0038 16.536C98.4091 17.24 98.9531 17.8053 99.6358 18.232C100.34 18.6587 101.118 18.872 101.972 18.872C102.846 18.872 103.636 18.6587 104.34 18.232C105.065 17.8053 105.63 17.24 106.036 16.536C106.462 15.8107 106.676 15 106.676 14.104V0.567999H111.348V14.392C111.348 16.0773 110.942 17.592 110.132 18.936C109.321 20.2587 108.201 21.304 106.772 22.072C105.364 22.8187 103.764 23.192 101.972 23.192ZM116.975 23V0.599998H126.703C128.196 0.599998 129.455 0.823999 130.479 1.272C131.524 1.69867 132.313 2.328 132.847 3.16C133.38 3.992 133.647 4.984 133.647 6.136C133.647 7.416 133.327 8.48267 132.687 9.336C132.047 10.1893 131.129 10.776 129.935 11.096L129.903 10.456C130.884 10.6907 131.748 11.0747 132.495 11.608C133.241 12.1413 133.817 12.8027 134.223 13.592C134.628 14.3813 134.831 15.2773 134.831 16.28C134.831 17.3893 134.649 18.3707 134.287 19.224C133.924 20.056 133.391 20.7493 132.687 21.304C131.983 21.8587 131.151 22.2853 130.191 22.584C129.252 22.8613 128.196 23 127.023 23H116.975ZM121.583 18.84H126.831C127.513 18.84 128.089 18.744 128.559 18.552C129.049 18.3387 129.423 18.0187 129.679 17.592C129.935 17.1653 130.062 16.664 130.062 16.088C130.062 15.5333 129.924 15.064 129.647 14.68C129.369 14.296 128.975 14.008 128.463 13.816C127.972 13.6027 127.375 13.496 126.671 13.496H121.583V18.84ZM121.583 9.688H126.127C126.703 9.688 127.204 9.58133 127.631 9.368C128.057 9.15467 128.377 8.86667 128.591 8.504C128.825 8.14133 128.943 7.71467 128.943 7.224C128.943 6.43467 128.687 5.82667 128.175 5.4C127.663 4.97333 126.895 4.76 125.871 4.76H121.583V9.688Z" fill="white"/>
</svg>
